Coordinates
version=1
nRows=19
nColumns=34
inDegrees=yes

Units are S.I. units (second, meters, Newtons, ...)
If the header above contains a line with 'inDegrees', this indicates whether rotational values are in degrees (yes) or radians (no).

endheader
time	pelvis_tilt	pelvis_list	pelvis_rotation	pelvis_tx	pelvis_ty	pelvis_tz	hip_flexion_r	hip_adduction_r	hip_rotation_r	knee_angle_r	ankle_angle_r	subtalar_angle_r	mtp_angle_r	hip_flexion_l	hip_adduction_l	hip_rotation_l	knee_angle_l	ankle_angle_l	subtalar_angle_l	mtp_angle_l	lumbar_extension	lumbar_bending	lumbar_rotation	arm_flex_r	arm_add_r	arm_rot_r	elbow_flex_r	pro_sup_r	arm_flex_l	arm_add_l	arm_rot_l	elbow_flex_l	pro_sup_l
     11.71666670	    -10.89490479	     -1.45553297	     21.80055922	      0.47924785	      0.93886070	     -0.11225955	     11.41686781	     -1.26243225	    -13.34523831	      0.00000000	      2.93645888	     -2.82468584	      0.00000000	     12.95865922	      2.27795125	    -12.79586618	      0.00000000	     -1.70472603	      3.07906895	      0.00000000	     12.79200330	     -3.32762445	      5.70312511	     64.15128844	     -4.23262105	     20.51779822	     41.39271491	     88.87708954	     81.17776124	      7.67807012	    101.63704332	      7.20559064	     33.24345582
     11.73333330	    -10.62506603	     -1.31164891	     21.72310623	      0.48173037	      0.93847487	     -0.11394765	     11.00550149	     -1.28231533	    -12.81990633	      0.00000000	      3.17355475	     -3.05738618	      0.00000000	     12.60325010	      2.26546842	    -12.82143282	      0.19348296	     -1.52193417	      2.75971261	      0.00000000	     12.78237439	     -3.34493642	      5.33461524	     63.75497982	     -3.83480010	     20.62364450	     41.46460528	     88.98345331	     80.81217168	      7.31132965	    101.77735088	      7.16081644	     33.40897358
     11.75000000	    -10.64173514	     -1.32071531	     21.72975030	      0.47936141	      0.93535732	     -0.11315714	     10.99951363	     -1.28592963	    -12.81060290	      0.00000000	      3.17637089	     -3.05924184	      0.00000000	     12.56278194	      2.26554592	    -12.82508056	      0.20996847	     -1.51486445	      2.75507408	      0.00000000	     12.79535052	     -3.34250870	      5.31809535	     63.76222340	     -3.82719266	     20.62389339	     41.46750031	     88.98488965	     80.81577820	      7.31873125	    101.77910810	      7.16391629	     33.41126344
     11.76666670	    -10.57344811	     -1.29577402	     21.74713133	      0.47344561	      0.93992642	     -0.11072602	     11.01028898	     -1.29217213	    -12.31919860	      0.00000000	      3.56795516	     -3.44589812	      0.00000000	     12.63402312	      2.25506569	    -12.71370712	      0.40877165	     -0.91947792	      2.46898137	      0.00000000	     12.49338831	     -3.27203261	      5.24688089	     64.05606719	     -3.58092691	     20.64141390	     41.26988542	     89.09468625	     80.80917224	      7.25224421	    101.88757136	      7.18985144	     33.57822084
     11.78333330	    -10.51367368	     -1.33594704	     21.74937375	      0.48197780	      0.93451159	     -0.11652228	     10.98918987	     -1.23968095	    -11.73146209	      0.00000000	      2.71060161	     -5.46881229	      0.00000000	     12.54100117	      2.23340353	    -12.65785031	      0.32162033	     -0.67240380	      2.23144484	      0.00000000	     12.55199475	     -2.95676674	      4.34640228	     64.88758155	     -2.39837458	     21.43616407	     39.21978994	     90.11317276	     80.76573435	      6.01996044	    102.64868009	      7.53105101	     34.90731348
     11.80000000	    -10.50687731	     -1.38571413	     21.65543799	      0.48524953	      0.93869742	     -0.11712777	     10.95480527	     -1.17199475	    -12.17919858	      0.00000000	      2.27052705	     -5.47939728	      0.00000000	     12.33766051	      2.24662704	    -12.72753879	      0.00000000	     -0.45820297	      2.28035576	      0.00000000	     12.51631858	     -2.85444709	      4.00805626	     64.85416769	     -2.00003574	     21.65906602	     39.27999465	     90.26140226	     80.62314084	      5.73681099	    102.68942047	      7.36804363	     35.06566726
     11.81666670	    -10.55046908	     -1.42204678	     21.67802668	      0.47866444	      0.93907841	     -0.11439771	     11.02557910	     -1.17180036	    -12.20079785	      0.00733116	      2.27548301	     -5.49804397	      0.00000000	     12.42353137	      2.27056618	    -12.74574202	      0.00000000	     -0.40948452	      2.26893063	      0.00000000	     12.33970032	     -2.83082921	      3.99355671	     64.82458253	     -1.98824556	     21.67126229	     39.25559424	     90.26733146	     80.58087193	      5.75464107	    102.69226668	      7.37412251	     35.07263811
     11.83333330	    -10.63763913	     -1.51532985	     21.74511904	      0.47116182	      0.93836921	     -0.11086850	     11.78793150	     -1.23321203	    -12.40442558	      0.82727850	      2.30942978	     -5.84271705	      0.00000000	     12.74296623	      2.24285809	    -12.55520382	      0.00000000	     -0.01258792	      2.30990163	      0.00000000	     11.77416735	     -2.71286186	      4.07674155	     65.62157046	     -2.11250272	     21.60831763	     39.00422747	     90.31625715	     81.12960580	      5.98894137	    102.64756766	      7.23112661	     35.13000606
     11.85000000	    -10.89761704	     -1.59561809	     21.75317569	      0.46737858	      0.93540564	     -0.10889894	     12.81330370	     -1.32918810	    -11.65741192	      1.53356687	      2.34702721	     -7.04056699	      0.00000000	     13.32990196	      2.26586922	    -12.38697218	      0.00000000	     -0.18909216	      1.81772532	      0.00000000	     11.56016540	     -2.50337261	      3.93990592	     67.31496127	     -1.50400440	     22.80151023	     35.71275306	     91.01554031	     81.35904640	      6.16942042	    102.56286331	      6.09548477	     35.86628906
     11.86666670	    -10.98982138	     -1.63768165	     21.91400918	      0.46259836	      0.93535697	     -0.10789909	     13.75551283	     -1.42882715	    -11.58445677	      2.45371711	      2.76315751	     -7.36579621	      0.00000000	     13.87767539	      2.27137345	    -12.11490179	      0.21970742	     -0.27000877	      1.85752848	      0.00000000	     10.77494101	     -2.46231102	      3.84370398	     68.14763965	     -1.64520795	     22.89356070	     35.58988449	     91.08028562	     82.21582551	      6.34173521	    102.51538140	      6.02898697	     35.95902483
     11.88333330	    -11.40692297	     -1.93956480	     22.03355849	      0.46286748	      0.93029607	     -0.10857828	     15.23736135	     -1.42187815	    -11.12704523	      3.68992467	      2.96781833	     -8.30846273	      0.00000000	     15.27436951	      2.05614041	    -11.64355951	      1.41224454	     -0.17223379	      0.86784077	      0.00000000	     10.79241305	     -2.32308624	      3.83081373	     68.92905868	     -2.05598958	     23.82991466	     34.98321516	     91.36508158	     82.64253156	      6.56711390	    102.51101211	      5.86687861	     36.39559271
     11.90000000	    -11.82542045	     -2.14812041	     22.46132816	      0.45935493	      0.92858640	     -0.10644582	     16.50428818	     -1.54022181	    -11.09120505	      4.80026218	      3.06776786	     -9.31283583	      0.00000000	     17.08992900	      1.93512018	    -11.27355066	      3.45285436	      0.05178019	     -0.23462056	      0.00000000	     10.37989318	     -2.26462526	      2.53553917	     69.36435731	     -1.53152367	     24.79447634	     35.63972289	     91.56906376	     83.29084729	      5.69076329	    102.64098500	      5.48945376	     36.75556099
     11.91666670	    -12.64023787	     -2.58283731	     22.80186377	      0.45045604	      0.91789275	     -0.10172929	     18.67282829	     -1.61084241	    -10.67571009	      6.50806379	      3.61384831	    -10.74316274	      0.00000000	     19.84060998	      1.69255046	    -10.53119726	      6.08043856	      0.79683898	     -1.94779393	      0.00000000	      9.92302925	     -2.13195177	      2.49029450	     71.02715850	     -1.92826521	     25.56414481	     35.48941220	     91.73045137	     84.90562185	      5.78491462	    103.00075264	      5.64185546	     37.17337609
     11.93333330	    -13.44050482	     -2.99000980	     23.21629091	      0.45380479	      0.91731674	     -0.10370533	     20.77389991	     -1.77977679	    -10.25833399	      8.54971545	      4.14206259	    -12.38584715	      0.00000000	     22.70848861	      1.45907966	     -9.82462740	      9.35883537	      1.17493825	     -3.86933969	      0.00000000	      9.74606083	     -1.98285624	      1.84385972	     71.91408313	     -1.84464217	     26.40319461	     35.96792368	     91.86912198	     85.75731308	      5.47713804	    103.45465229	      5.49035856	     37.56252350
     11.95000000	    -14.05033207	     -3.43902052	     23.57530498	      0.45401602	      0.91085475	     -0.10335036	     22.74953048	     -1.82432828	     -9.91501049	     10.66237799	      4.70268435	    -14.14683311	      0.00000000	     25.45069615	      1.14469813	     -9.11726443	     12.71006127	      1.75422223	     -5.88850717	      0.00000000	      9.61182756	     -1.75348587	      1.57320650	     72.41674839	     -2.04824078	     26.87053199	     36.43874002	     91.92213215	     86.39711603	      5.43488200	    103.89688739	      5.54713116	     37.86840798
     11.96666670	    -14.60626843	     -3.89292570	     23.67227322	      0.44858436	      0.91477278	     -0.09995864	     24.92823431	     -1.75678237	     -9.09037818	     13.11799188	      5.29228591	    -15.89456435	      0.00000000	     28.21079055	      0.76821475	     -8.17199709	     16.34877522	      2.22209543	     -8.03716891	      0.00000000	      9.62621991	     -1.44514518	      1.22663271	     72.01568655	     -2.01864918	     26.93739569	     37.59563409	     91.88351765	     86.43348458	      5.05012017	    104.24051106	      5.47301232	     38.07453543
     11.98333330	    -15.09887111	     -4.37615578	     23.77457338	      0.45270131	      0.90386424	     -0.10224594	     27.01051683	     -1.63298294	     -8.15656396	     15.90393826	      5.81489814	    -18.13726146	      0.00000000	     30.97134506	      0.41771862	     -7.30914775	     20.10931668	      2.82938797	    -10.28845289	      0.00000000	     10.03853929	     -1.23552985	      1.13949734	     71.00393811	     -2.46418230	     26.47451211	     39.10897554	     91.78920654	     86.08813196	      4.95890653	    104.45256298	      5.49514695	     38.20690864
     12.00000000	    -15.63346470	     -4.74394495	     23.48228940	      0.44451270	      0.89490198	     -0.09814525	     29.56080031	     -1.48258638	     -7.04080305	     19.25173981	      6.76858362	    -20.26987309	      0.00000000	     33.96115208	      0.03571310	     -6.62812496	     24.23391114	      3.73045802	    -12.60106430	      0.00000000	      9.89633650	     -1.10428469	      1.58365861	     70.96619146	     -2.62437564	     25.68282768	     39.97030717	     91.69594020	     86.31469220	      5.23238877	    104.39090859	      5.31905884	     38.18397383
     12.01666670	    -16.08960373	     -5.02942629	     23.09972181	      0.43641101	      0.89961141	     -0.09496096	     32.46777410	     -1.25816525	     -5.71127082	     22.70413267	      6.52574696	    -23.32796598	      0.00000000	     36.53955068	     -0.15934658	     -5.71397421	     27.40469552	      3.87433275	    -15.17914555	      0.00000000	      8.99392443	     -0.98507555	      2.46448944	     70.83086331	     -2.91502896	     23.73756714	     41.30391981	     91.47497206	     86.38384049	      6.14358836	    103.39297626	      4.53482812	     37.63440039
